<svg width="22" height="23" viewBox="0 0 22 23" fill="none" xmlns="http://www.w3.org/2000/svg">
<path d="M13.9668 21.6653V13.7304H16.2658C16.3863 12.8166 16.5008 11.9452 16.6219 11.0227H13.9153C13.9534 10.2071 13.9568 9.43801 14.0391 8.6783C14.08 8.30013 14.4006 8.07269 14.7796 8.03232C15.2234 7.98521 15.672 7.98319 16.1192 7.9657C16.2973 7.95897 16.4753 7.96435 16.6755 7.96435V5.54325C15.4028 5.50961 14.1154 5.21892 12.8943 5.83529C11.629 6.4732 11.2146 7.61444 11.1738 8.94275C11.153 9.61431 11.1704 10.2865 11.1704 11.0059H8.89822V13.6981H11.1363V22.0825C7.30488 22.3967 1.64313 19.5975 0.418666 13.3684C-0.736177 7.49265 3.26527 1.64312 9.05221 0.686926C15.1826 -0.326463 20.8196 3.7419 21.6377 9.81685C22.4973 16.202 17.9495 20.7313 13.9668 21.6653Z" fill="#2C4C71"/>
</svg>
