<svg width="22" height="23" viewBox="0 0 22 23" fill="none" xmlns="http://www.w3.org/2000/svg">
<path d="M21.9049 11.3275C21.9103 17.3029 17.0927 22.1558 11.1538 22.1579C5.21156 22.1599 0.388005 17.313 0.389344 11.3403C0.390682 5.36831 5.21558 0.527459 11.1619 0.532169C17.0834 0.536879 21.8995 5.37638 21.9049 11.3275ZM11.1364 5.22633C11.1364 5.21152 11.1364 5.19605 11.1364 5.18124C10.2547 5.18124 9.37168 5.15635 8.49132 5.18663C6.42399 5.25795 5.077 6.5829 5.02478 8.65476C4.97993 10.4541 4.97792 12.2568 5.02612 14.0568C5.08102 16.0937 6.40323 17.4348 8.42772 17.4953C10.2453 17.5492 12.0677 17.5519 13.8853 17.4933C15.8883 17.4294 17.2065 16.0923 17.2648 14.077C17.3177 12.2635 17.313 10.4467 17.2668 8.63323C17.2179 6.72824 16.1193 5.47463 14.2367 5.24853C13.2165 5.12606 12.1701 5.227 11.1351 5.227L11.1364 5.22633Z" fill="#2C4C71"/>
<path d="M11.1398 16.3427C10.1336 16.3427 9.12198 16.41 8.12312 16.3245C6.99439 16.2283 6.29546 15.5224 6.19102 14.3906C6.0906 13.3018 6.09729 12.201 6.09595 11.1048C6.09461 10.1641 6.09528 9.21732 6.19102 8.28333C6.30483 7.17574 6.99639 6.47525 8.09567 6.36422C9.06708 6.26598 10.0505 6.26665 11.0286 6.26732C12.077 6.26732 13.1301 6.26261 14.1718 6.36153C15.3026 6.46987 15.9995 7.16497 16.1033 8.29679C16.203 9.38555 16.197 10.4864 16.1983 11.5826C16.1997 12.5233 16.1983 13.4701 16.1033 14.404C15.9908 15.5063 15.2925 16.2283 14.1986 16.3205C13.1857 16.4053 12.1601 16.3386 11.1404 16.3386C11.1404 16.34 11.1404 16.3413 11.1404 16.3427H11.1398ZM14.3224 11.3248C14.3084 9.57059 12.8543 8.13126 11.117 8.15279C9.38575 8.17432 7.97249 9.60828 7.97182 11.343C7.97182 13.0939 9.41654 14.5433 11.1565 14.5366C12.8998 14.5299 14.3365 13.073 14.3224 11.3248ZM14.4282 8.77119C14.8386 8.77994 15.176 8.44954 15.1794 8.03638C15.1827 7.62658 14.848 7.28946 14.4396 7.29215C14.0446 7.29417 13.7239 7.60572 13.7079 8.00341C13.6911 8.41051 14.0219 8.76244 14.4282 8.77119Z" fill="#2C4C71"/>
<path d="M11.1271 9.27922C12.2658 9.26644 13.1891 10.1762 13.2018 11.3248C13.2145 12.4708 12.31 13.3974 11.1672 13.4108C10.0278 13.4236 9.10459 12.5132 9.09187 11.3659C9.07915 10.2213 9.98495 9.29268 11.1271 9.2799V9.27922Z" fill="#2C4C71"/>
</svg>
