<svg width="23" height="23" viewBox="0 0 23 23" fill="none" xmlns="http://www.w3.org/2000/svg">
<path d="M11.5395 0.0614015C17.7194 0.0600557 22.7318 5.09807 22.7297 11.3096C22.7277 17.5178 17.7094 22.5518 11.5281 22.5464C5.35421 22.541 0.351229 17.4922 0.359263 11.2753C0.367296 5.08932 5.37898 0.0627487 11.5395 0.06073V0.0614015ZM5.16408 17.8482C5.87506 17.9969 6.3544 17.8502 6.80295 17.2877C7.93168 15.8726 9.14142 14.5227 10.3197 13.148C10.4181 13.0329 10.5239 12.9239 10.6437 12.7934C10.7602 12.9589 10.8533 13.0881 10.9436 13.22C11.9412 14.6788 12.9353 16.1397 13.9382 17.5945C14.0219 17.7156 14.1611 17.8812 14.277 17.8832C15.478 17.9041 16.6797 17.896 17.9671 17.896C16.2024 15.3127 14.4872 12.8021 12.7693 10.2875C14.3566 8.43095 15.9172 6.60604 17.4991 4.75556C16.511 4.60281 16.5016 4.60349 15.9426 5.25418C14.7262 6.67131 13.5118 8.09113 12.2692 9.54191C12.1608 9.3905 12.0664 9.26333 11.9773 9.13278C11.038 7.75805 10.1014 6.38196 9.15615 5.01126C9.07247 4.88947 8.93523 4.71922 8.82075 4.71721C7.61837 4.69567 6.416 4.70375 5.12324 4.70375C6.82371 7.19281 8.47463 9.61054 10.1329 12.0377C8.47597 13.975 6.83576 15.8927 5.16341 17.8482H5.16408Z" fill="#2C4C71"/>
<path d="M16.3591 17.0596C16.2874 17.0744 16.2734 17.0798 16.2586 17.0798C15.2348 17.1264 14.431 16.7296 13.8472 15.8894C11.5804 12.6292 9.31285 9.36967 7.04601 6.11013C6.93889 5.95604 6.83378 5.79993 6.66708 5.55566C7.26225 5.55566 7.7764 5.54557 8.28922 5.56508C8.37826 5.56845 8.48471 5.68015 8.54563 5.76763C11.1244 9.46859 13.6986 13.1722 16.2727 16.8766C16.3028 16.9203 16.3189 16.9741 16.3584 17.0596H16.3591Z" fill="#2C4C71"/>
</svg>
